<?xml version="1.0" standalone="no"?>
<!DOCTYPE svg PUBLIC "-//W3C//DTD SVG 20010904//EN"
 "http://www.w3.org/TR/2001/REC-SVG-20010904/DTD/svg10.dtd">
<svg version="1.0" xmlns="http://www.w3.org/2000/svg"
 width="624.000000pt" height="624.000000pt" viewBox="0 0 624.000000 624.000000"
 preserveAspectRatio="xMidYMid meet">
<metadata>
Created by potrace 1.14, written by Peter Selinger 2001-2017
</metadata>
<g transform="translate(0.000000,624.000000) scale(0.100000,-0.100000)"
fill="#000000" stroke="none">
<path d="M4057 6094 c-1 -1 -40 -5 -87 -9 -124 -10 -200 -21 -209 -31 -2 -2 7
-4 20 -5 58 -2 125 -13 219 -35 431 -100 732 -383 853 -804 26 -88 31 -115 42
-210 4 -30 9 -66 11 -80 5 -32 5 -287 0 -320 -2 -14 -7 -54 -11 -90 -9 -93
-11 -103 -35 -224 -12 -60 -28 -128 -35 -151 -8 -23 -16 -50 -18 -61 -7 -44
-95 -293 -109 -308 -4 -6 -8 -16 -8 -24 0 -13 -7 -29 -72 -172 -89 -196 -321
-606 -350 -618 -5 -2 -8 -8 -8 -13 0 -13 -215 -314 -255 -355 -5 -6 -21 -26
-35 -44 -14 -18 -29 -38 -35 -44 -5 -6 -50 -58 -100 -116 -96 -113 -386 -407
-500 -507 -105 -93 -120 -105 -239 -201 -23 -17 -46 -36 -52 -41 -135 -108
-377 -272 -385 -259 -8 12 -3 227 6 308 4 30 8 69 10 85 2 17 4 30 5 30 1 0 3
16 6 35 18 147 148 637 176 666 5 5 -38 80 -152 264 -32 52 -59 100 -59 107
-1 6 -4 13 -8 15 -5 2 -42 59 -83 128 -41 69 -77 127 -80 130 -3 3 -12 19 -20
35 -8 17 -18 32 -21 35 -3 3 -12 16 -19 30 -7 13 -29 49 -49 80 -19 30 -36 57
-36 60 0 3 -12 23 -26 45 -14 22 -70 112 -123 200 -54 88 -105 167 -112 176
-8 9 -12 18 -9 21 3 2 -5 14 -18 26 -20 19 -29 21 -94 14 -106 -12 -353 -5
-473 13 -98 15 -164 26 -169 29 -3 2 -22 7 -41 10 -156 25 -471 160 -553 236
-25 24 -47 26 -47 4 0 -9 26 -55 58 -102 31 -48 59 -90 60 -95 2 -4 28 -44 58
-89 30 -45 54 -86 54 -91 0 -5 -29 -59 -64 -121 -86 -151 -243 -465 -245 -491
-1 -3 -8 -22 -17 -43 -52 -121 -159 -454 -190 -592 -2 -11 -6 -30 -9 -43 -23
-104 -53 -306 -61 -412 -11 -135 -5 -362 10 -465 10 -66 20 -114 33 -165 8
-33 16 -64 18 -70 9 -41 19 -72 25 -80 4 -5 13 -28 20 -50 14 -42 83 -175 112
-215 l17 -23 38 40 c49 52 209 225 248 267 27 30 56 63 165 191 19 23 44 54
55 69 11 15 30 40 43 54 12 15 26 32 30 37 4 6 28 37 53 70 48 64 253 359 285
412 10 17 39 64 64 105 24 40 47 75 50 78 6 6 64 101 169 283 25 43 49 77 53
77 5 0 27 -9 51 -19 51 -23 78 -33 95 -37 8 -1 16 -5 19 -8 6 -5 -235 -412
-317 -536 -15 -22 -143 -224 -155 -243 -25 -41 -287 -425 -326 -477 -14 -19
-70 -96 -125 -170 -198 -270 -253 -332 -379 -425 -125 -92 -276 -151 -393
-154 -38 -1 -36 -4 33 -56 141 -106 320 -198 530 -272 116 -41 291 -86 420
-107 137 -23 155 -26 220 -32 l60 -5 -30 17 c-149 84 -225 203 -224 352 0 70
1 75 15 126 15 51 173 379 209 431 11 17 19 31 17 33 -1 1 42 91 97 200 277
552 447 888 451 892 10 10 150 298 150 309 0 6 5 11 10 11 6 0 10 7 10 15 0
18 9 18 81 5 30 -5 71 -12 93 -15 21 -2 41 -6 43 -8 5 -6 -158 -300 -171 -309
-6 -4 -7 -8 -3 -8 5 0 0 -15 -11 -32 -11 -18 -37 -67 -58 -108 -21 -41 -43
-78 -47 -81 -5 -3 -8 -9 -8 -13 1 -3 -25 -61 -58 -129 -61 -126 -113 -238
-115 -247 -1 -3 -21 -52 -45 -110 -24 -58 -47 -114 -51 -125 -4 -11 -13 -33
-20 -50 -50 -123 -198 -609 -216 -710 -3 -22 -11 -48 -16 -59 -9 -17 -6 -18
64 -12 40 3 84 8 97 11 12 2 43 7 68 10 25 2 62 9 82 14 20 6 47 12 61 15 250
49 627 208 945 399 157 94 441 293 520 364 11 10 54 46 95 79 222 182 525 490
720 734 19 24 45 55 57 69 29 33 31 36 78 101 22 30 42 57 45 60 4 3 21 28 40
55 19 28 36 52 40 55 32 27 309 490 381 635 19 39 37 72 42 73 4 2 7 8 7 14 0
6 15 43 34 82 74 156 128 293 192 483 39 117 94 317 108 393 2 14 7 36 10 50
3 14 8 41 11 60 2 19 7 45 9 57 3 12 8 50 11 85 4 35 9 77 11 93 6 47 6 366 0
405 -3 19 -8 58 -12 85 -3 28 -12 79 -20 115 -8 36 -17 75 -19 87 -11 46 -69
201 -97 258 -72 144 -198 301 -303 380 -22 16 -42 33 -45 36 -14 17 -155 92
-221 118 -125 50 -227 75 -361 87 -63 5 -227 11 -231 8z m-2886 -2726 c41 -62
77 -114 82 -116 4 -2 7 -8 7 -12 0 -20 187 -285 236 -335 l53 -54 -56 -73
c-32 -40 -60 -75 -64 -78 -3 -3 -30 -34 -59 -70 -73 -88 -385 -397 -410 -405
-11 -3 -20 -10 -20 -15 0 -12 -229 -184 -236 -177 -7 6 -6 186 1 262 3 28 7
73 9 100 3 28 12 88 22 135 20 107 22 115 24 115 1 0 3 9 4 20 10 73 99 344
153 465 38 85 173 349 179 350 1 0 35 -51 75 -112z"/>
<path d="M3000 5615 c-135 -85 -249 -158 -255 -162 -5 -5 -32 -21 -59 -37 -48
-28 -111 -68 -131 -83 -5 -5 -21 -14 -35 -21 -14 -7 -36 -21 -50 -32 -23 -17
-24 -21 -13 -52 19 -55 27 -118 26 -218 -1 -104 -3 -116 -34 -216 -32 -105
-105 -226 -174 -287 -58 -52 -73 -64 -105 -84 -63 -38 -110 -63 -110 -57 0 2
-10 -1 -22 -7 -71 -38 -233 -54 -348 -35 -127 21 -257 90 -352 187 l-36 37
-77 -49 c-42 -27 -79 -49 -82 -49 -3 0 -21 -11 -39 -25 -18 -14 -35 -25 -39
-25 -6 0 -88 -52 -95 -61 -3 -3 -15 -9 -27 -13 -13 -4 -23 -12 -23 -17 0 -5
-7 -9 -15 -9 -18 0 -20 -17 -3 -33 34 -33 98 -77 143 -99 74 -37 214 -83 285
-93 8 -1 40 -7 70 -13 76 -16 118 -23 165 -27 22 -2 57 -6 77 -9 70 -9 243
-19 368 -20 l124 -1 33 48 c18 27 33 53 33 57 0 5 4 10 8 12 10 4 72 94 72
104 0 4 7 14 16 23 12 13 95 137 149 223 27 43 775 1164 783 1174 5 5 15 21
22 34 7 14 19 30 26 37 18 18 11 48 -12 50 -10 1 -129 -67 -264 -152z"/>
<path d="M1680 5598 c-72 -16 -146 -70 -173 -125 -13 -26 -23 -64 -23 -83 1
-31 4 -35 31 -36 65 -2 128 -55 139 -115 8 -44 -4 -78 -39 -113 -36 -36 -48
-33 -26 7 21 35 20 57 -2 91 -13 20 -22 22 -74 20 -32 -2 -112 -6 -178 -8 -66
-3 -131 -8 -145 -11 -14 -3 -38 -7 -55 -10 -83 -14 -271 -66 -300 -84 -5 -3
-15 -6 -21 -7 -17 -3 -166 -79 -216 -110 -55 -34 -162 -117 -211 -163 -50 -48
-130 -141 -125 -146 2 -2 22 2 43 9 35 13 45 12 88 -4 l48 -18 27 35 c151 194
413 364 628 408 52 11 69 14 99 20 50 11 168 18 269 16 l50 -1 -46 -29 c-51
-32 -80 -69 -97 -123 -14 -41 -10 -102 7 -134 6 -12 9 -24 6 -26 -10 -11 107
-116 162 -145 311 -165 705 4 770 331 12 56 11 130 -2 179 -7 26 -12 48 -11
50 1 1 -11 29 -27 62 -56 115 -212 236 -336 260 -61 12 -213 14 -260 3z"/>
<path d="M3503 5602 c-14 -9 -63 -80 -63 -91 0 -5 -7 -11 -15 -15 -8 -3 -15
-10 -15 -15 0 -5 -80 -130 -178 -278 -270 -406 -376 -567 -382 -578 -3 -5 -60
-93 -128 -195 -148 -222 -198 -321 -216 -430 -3 -19 -8 -46 -11 -60 -8 -32 -8
-207 0 -240 3 -14 8 -41 11 -60 11 -73 93 -270 112 -270 4 0 64 93 133 208 70
114 238 389 374 612 136 223 279 457 318 520 77 126 101 165 139 225 14 22 62
100 106 173 l82 134 -81 156 c-102 197 -113 212 -147 212 -15 0 -32 -4 -39 -8z"/>
<path d="M5513 5104 c3 -10 17 -57 31 -104 26 -82 78 -322 74 -337 -1 -5 2
-27 6 -50 20 -112 21 -433 1 -583 -3 -25 -8 -58 -10 -75 -8 -62 -17 -113 -36
-200 -11 -49 -22 -101 -25 -115 -3 -14 -14 -56 -25 -94 -12 -38 -22 -76 -24
-85 -4 -21 -91 -259 -112 -307 -9 -22 -17 -41 -18 -44 -19 -62 -187 -389 -271
-526 -10 -18 -34 -57 -52 -88 -18 -30 -38 -58 -43 -61 -5 -4 -18 -23 -28 -43
-11 -20 -29 -48 -40 -62 -12 -13 -32 -40 -43 -60 -12 -19 -25 -37 -28 -40 -3
-3 -19 -23 -35 -45 -31 -42 -133 -172 -150 -191 -5 -6 -30 -36 -55 -65 -129
-155 -423 -449 -585 -588 -60 -51 -121 -103 -135 -115 -47 -41 -305 -231 -380
-281 -41 -28 -77 -53 -80 -56 -3 -3 -21 -14 -40 -25 -38 -21 -100 -60 -115
-72 -37 -28 -515 -283 -530 -282 -3 0 -18 -6 -33 -14 -125 -64 -572 -224 -731
-261 -9 -3 -43 -11 -76 -19 -33 -8 -60 -14 -60 -14 0 0 -37 -7 -83 -17 -45
-10 -81 -20 -79 -21 9 -9 122 -17 227 -16 144 1 243 10 370 33 30 6 69 12 85
15 23 3 226 54 315 78 100 28 347 122 475 181 197 91 311 153 497 268 51 31
102 63 113 70 11 6 22 14 25 17 3 3 34 25 70 49 352 240 794 653 1045 975 17
21 35 44 41 50 19 20 181 240 192 263 7 12 18 27 25 35 7 7 44 63 81 123 38
61 78 126 90 145 25 38 219 428 222 445 2 5 19 47 38 93 35 81 94 241 101 272
2 8 10 35 18 60 18 52 63 229 72 280 3 19 8 42 10 50 4 16 15 85 21 135 31
262 22 498 -25 715 -6 25 -12 55 -15 67 -10 49 -72 212 -108 286 -40 82 -125
214 -161 250 -19 19 -20 19 -14 1z"/>
<path d="M3833 4943 c-4 -10 -44 -83 -90 -162 -46 -79 -83 -147 -83 -151 0 -4
-7 -13 -15 -20 -8 -7 -13 -16 -10 -20 3 -5 2 -10 -3 -12 -7 -3 -49 -76 -220
-378 -14 -25 -49 -87 -79 -137 -29 -51 -53 -97 -53 -102 0 -5 -4 -11 -8 -13
-9 -4 -98 -160 -107 -188 -4 -11 -11 -20 -16 -20 -5 0 -9 -4 -9 -10 0 -5 -14
-33 -31 -62 -17 -29 -39 -66 -48 -83 -9 -16 -69 -123 -134 -236 -138 -244
-142 -261 -80 -366 15 -26 33 -55 38 -65 63 -109 118 -199 120 -196 1 2 22 39
45 83 23 44 55 103 70 130 44 81 104 193 160 300 29 55 60 114 70 130 9 17 41
75 70 130 29 55 70 132 90 170 21 39 54 101 73 138 19 37 41 74 47 82 7 8 9
15 6 15 -4 0 1 12 12 28 10 15 52 90 92 167 40 77 88 168 106 203 31 57 54
122 72 199 7 33 8 239 1 268 -3 11 -11 46 -19 78 -7 31 -17 57 -22 57 -4 0 -8
3 -7 8 2 15 -14 52 -22 52 -6 0 -13 -8 -16 -17z"/>
</g>
</svg>
